<?xml version="1.0" encoding="UTF-8"?><svg id="Layer_2" xmlns="http://www.w3.org/2000/svg" viewBox="0 0 250 256.02"><defs><style>.cls-1{stroke:#212335;}.cls-1,.cls-2,.cls-3,.cls-4,.cls-5,.cls-6{stroke-linecap:round;stroke-linejoin:round;}.cls-1,.cls-2,.cls-3,.cls-6{stroke-width:4.82px;}.cls-1,.cls-7{fill:#f9c222;}.cls-2{stroke:#202134;}.cls-2,.cls-3,.cls-4,.cls-5,.cls-6{fill:none;}.cls-8{fill:#f77e70;}.cls-3{stroke:#202235;}.cls-4{stroke:#222335;}.cls-4,.cls-5{stroke-width:6.02px;}.cls-5{stroke:#232537;}.cls-6{stroke:#212336;}</style></defs><g id="Layer_1-2"><g id="Generative_Object"><path class="cls-8" d="M120.45,3.82c1.19-.57,5.44-.99,6.63-.72,7.19,1.64,39.69,35.84,47.83,43.61,1.18-.69,1.08-1.89,1.33-3.02.96-4.29.03-18.39,2.16-20.23h23.86c1.67,1.6,1.44,41.87.55,46.14-.26,1.26-.2,1.77-1.54,2.63,1.17,1.14,2.36,2.27,3.52,3.4,8.79,8.57,35.98,31.32,40.84,39.76,5,8.68-4.83,18.6-13.74,13.98-35.08-29.1-66.3-69.22-101.21-97.71-7.31-5.97-8.02-2.63-14.46,3.01-33.6,29.42-63.35,63.82-96.51,93.74-8.21,6.26-19.07-.58-16.27-10.6C38.58,82.75,73.62,45,110.81,11.77c2.74-2.45,6.54-6.47,9.64-7.95Z"/><path class="cls-7" d="M117.49,85.47l16.21,1.04v2.07s0,2.44,0,2.44l2.56.75c17.09,5.31,22.61,18.53,24.48,34.87l.19.67.84.37c5.46,1.69,7.75,12.18,1.44,13.86l-75.9.12c-6.96-1.34-4.24-13.42,2.09-14.61l.13-.63c.57-14.38,8.59-31.59,24.14-34.62,1.27-.25,1.62-.22,2.9.32-.02.2,0,.41-.01.62.02-.21,0-.41.01-.62.13-1.42-.43-5.97.91-6.63Z"/><path class="cls-1" d="M174.56,171.7l.82,1.02c-11.76,22.66,9.18,8.61,10.14,9.53,2.99,2.88-.13,8.6-3.01,10.72-4.5,3.31-10.32.05-13.86,1.93-6.74,3.59-16.74,21.47-23.49,14.94-7.23-6.99,11.32-17.82,15.54-23.98,3.71-5.42,1.38-15.33,13.86-14.17Z"/><path class="cls-7" d="M83.9,184.71l1.34,1.54c2.83,4.18,17.28,14.22,18.73,17.6.96,2.24-2.65,5.85-4.6,6.24-3.91.76-15.84-15.83-19.23-18.98l-1.28-1.43c1.48-1.69,3.37-3.03,5.04-4.96Z"/><path class="cls-5" d="M204.79,75.63c8.79,8.57,35.98,31.32,40.84,39.76,5,8.68-4.83,18.6-13.74,13.98-35.08-29.1-66.3-69.22-101.21-97.71-7.31-5.97-8.02-2.63-14.46,3.01-33.6,29.42-63.35,63.82-96.51,93.74-8.21,6.26-19.07-.58-16.27-10.6C38.58,82.75,73.62,45,110.81,11.77c2.74-2.45,6.54-6.47,9.64-7.95,1.19-.57,5.44-.99,6.63-.72,7.19,1.64,39.69,35.84,47.83,43.61,8.84,8.44,17.61,16.98,26.36,25.51,1.17,1.14,2.36,2.27,3.52,3.4Z"/><line class="cls-3" x1="160.94" y1="127.3" x2="89.41" y2="127.04"/><path class="cls-3" d="M89.41,127.04c-6.34,1.19-9.05,13.27-2.09,14.61l75.9-.12c6.31-1.69,4.02-12.17-1.44-13.86l-.84-.37"/><path class="cls-3" d="M113.68,91.78c-15.55,3.03-23.57,20.25-24.14,34.62l-.13.63"/><path class="cls-3" d="M134.91,86.6l-1.2-.09-16.21-1.04c-1.34.66-.78,5.21-.91,6.63-.02.2,0,.41-.01.62-.43,5.31-.02,10.72-.37,16.04"/><path class="cls-3" d="M133.71,88.58v2.44c0,6.11,0,12.23,0,18.34"/><path class="cls-3" d="M136.27,91.76c17.09,5.31,22.61,18.53,24.48,34.87l.19.67"/><path class="cls-6" d="M68.23,203.58c-2.33-2.16-10.17-7.68-9.83-10.48.56-4.6,5.71-4.11,7.9-6.61,1.89-2.16,1.5-8.93,5.36-13.27,6.89-7.76,24.54-5.81,22.02.27-.29.69-8.31,9.52-9.77,11.22-1.67,1.93-3.56,3.27-5.04,4.96-3.91,4.48-7.83,8.59-10.63,13.91Z"/><path class="cls-6" d="M85.24,186.25c2.83,4.18,17.28,14.22,18.73,17.6.96,2.24-2.65,5.85-4.6,6.24-3.91.76-15.84-15.83-19.23-18.98"/><line class="cls-6" x1="64.6" y1="188.45" x2="71.8" y2="194.91"/><path class="cls-2" d="M124.25,161.69c-17.63.02-51.43-4.85-67.65-1.73-7.99,1.54-5.82,11.18-6.02,18.07-.28,9.46-1.23,32.79.12,40.96,1.05,6.35,3.54,5.46,8.92,5.9,21.27,1.77,45.24-1.79,65.98-1.62,19.51.16,48.78,5.02,67.76,1.74,1.54-.27,3.54-.67,4.58-1.93,1.11-7.6,2.44-58.88-.96-61.81-1.86-1.6-4.45-1.13-6.63-1.33-21.47-1.94-44.87,1.71-66.09,1.73Z"/><line class="cls-2" x1="124.25" y1="161.69" x2="125.3" y2="221.41"/><path class="cls-4" d="M24.83,143.7l-.4,95.78c4.16,14.81,21.64,11.79,33.98,12.05,44.74.92,101.28,2.81,145.18,0,11.85-.76,19.94-2.38,22.17-16.27l.35-90.35"/><path class="cls-5" d="M202.81,69.6c.89-4.27,1.11-44.54-.55-46.14h-23.86c-2.14,1.84-1.21,15.94-2.16,20.23"/></g></g></svg>